<?xml version="1.0" standalone="no"?>
<!DOCTYPE svg PUBLIC "-//W3C//DTD SVG 20010904//EN"
 "http://www.w3.org/TR/2001/REC-SVG-20010904/DTD/svg10.dtd">
<svg version="1.0" xmlns="http://www.w3.org/2000/svg"
 width="251.000000pt" height="256.000000pt" viewBox="0 0 251.000000 256.000000"
 preserveAspectRatio="xMidYMid meet">
<metadata>
Created by potrace 1.16, written by Peter Selinger 2001-2019
</metadata>
<g transform="translate(0.000000,256.000000) scale(0.100000,-0.100000)"
fill="#000000" stroke="none">
<path d="M0 1280 l0 -1280 260 0 261 0 -3 63 c-2 34 -6 67 -10 72 -20 34 -19
135 1 135 9 0 33 -72 37 -110 1 -14 5 -55 9 -92 l7 -68 82 0 82 0 17 52 c18
56 10 81 -18 58 -12 -10 -15 -10 -15 4 0 14 -4 15 -22 5 -18 -10 -20 -9 -15 5
8 22 -34 66 -63 66 -24 0 -25 8 -3 40 l17 25 -22 -19 c-27 -23 -38 -16 -22 16
11 22 11 22 -9 -2 -18 -23 -20 -23 -27 -7 -4 10 -2 29 5 43 6 14 11 32 11 41
0 14 -4 13 -24 -6 l-23 -22 -16 33 c-8 18 -21 52 -29 76 -8 26 -18 40 -25 37
-9 -3 -13 6 -13 25 0 17 -4 30 -10 30 -5 0 -10 9 -10 20 0 27 -21 70 -34 70
-7 0 -13 12 -14 27 -1 14 -9 34 -17 43 -8 9 -15 26 -15 38 0 11 -4 24 -10 27
-35 22 -85 237 -69 297 4 15 6 43 4 63 -3 27 2 39 18 51 16 12 17 15 5 11 -14
-5 -18 -1 -18 22 0 24 3 28 24 24 31 -6 84 25 88 51 2 12 1 38 -3 58 -10 58 2
109 29 119 13 5 22 5 22 -1 0 -6 7 -10 15 -10 9 0 20 -11 25 -25 11 -30 18
-31 35 -8 8 11 10 24 5 33 -11 21 4 45 23 37 8 -3 20 -22 27 -42 10 -31 10
-39 -1 -47 -11 -8 -10 -9 3 -5 9 4 19 -1 22 -10 5 -12 1 -14 -16 -10 -13 3
-34 8 -48 11 -14 4 -19 4 -12 0 6 -3 12 -12 12 -20 0 -8 6 -14 13 -14 9 0 8
-3 -2 -9 -11 -7 -8 -13 14 -27 26 -17 26 -18 6 -29 -12 -6 -18 -14 -15 -18 11
-10 36 -9 30 2 -3 5 4 11 17 15 36 9 44 7 50 -14 4 -17 11 -19 31 -14 26 6 37
-10 14 -19 -7 -3 -8 -6 -3 -6 20 -1 38 17 39 40 1 16 7 24 19 23 9 -1 14 2 11
7 -5 9 1 11 38 13 10 1 17 5 17 10 0 5 6 13 15 18 9 5 14 13 11 19 -4 5 1 9 9
9 9 0 16 7 16 15 0 9 6 12 15 9 9 -4 15 0 15 9 0 18 26 47 42 47 6 0 8 -12 4
-32 -15 -76 -15 -88 4 -88 19 0 36 43 24 62 -4 7 -3 8 4 4 8 -5 12 0 12 14 0
11 8 30 18 40 17 18 20 19 41 3 20 -13 23 -22 18 -60 -3 -30 -1 -43 7 -40 17
6 46 -12 46 -28 0 -8 6 -15 14 -15 21 0 31 -21 15 -31 -19 -12 -6 -11 25 1 18
6 26 6 26 -1 0 -16 43 -47 57 -42 7 3 10 10 6 17 -4 6 -9 20 -10 31 -3 15 3
13 23 -12 14 -18 29 -33 34 -33 14 0 21 33 10 44 -8 8 -9 6 -5 -6 5 -12 2 -18
-8 -18 -8 0 -20 14 -26 31 -6 17 -15 28 -21 24 -6 -3 -7 0 -4 9 8 21 23 20 41
-1 10 -12 12 -13 8 -3 -4 8 5 2 19 -14 14 -17 23 -33 20 -37 -2 -4 27 -7 65
-5 55 2 75 7 99 27 17 13 29 30 27 37 -3 7 2 15 10 18 8 4 12 10 9 15 -3 5 6
9 21 9 18 0 28 7 35 25 12 31 19 31 67 3 54 -32 87 -66 48 -52 -8 4 -15 1 -15
-5 0 -6 4 -11 10 -11 6 0 5 -10 -2 -25 -6 -14 -17 -25 -25 -25 -7 0 -13 -4
-13 -10 0 -5 5 -10 10 -10 6 0 10 -7 10 -16 0 -8 -4 -13 -9 -10 -5 4 -20 1
-33 -4 l-23 -11 24 5 c22 5 23 4 5 -13 -22 -20 -45 -22 -57 -3 -4 6 -15 12
-23 12 -14 0 -14 -2 0 -16 21 -21 20 -27 -4 -19 -11 4 -34 4 -51 0 -23 -5 -28
-10 -19 -20 9 -11 7 -12 -11 -8 -18 5 -20 3 -14 -16 6 -20 -2 -26 -27 -22 -5
0 -8 -3 -8 -9 0 -6 -3 -9 -7 -9 -27 4 -42 -3 -37 -16 9 -21 -10 -19 -31 5 -19
21 -43 17 -26 -4 6 -7 6 -17 1 -26 -7 -11 -10 -7 -15 13 -4 15 -16 32 -28 38
-14 8 -16 13 -7 19 9 6 9 12 1 29 -13 23 -26 27 -36 11 -3 -5 1 -10 10 -10 11
0 15 -6 11 -18 -4 -12 1 -25 13 -36 22 -20 18 -46 -8 -47 -11 0 -10 -3 7 -11
23 -12 25 -29 4 -36 -8 -2 -10 2 -5 13 5 14 2 16 -15 11 -17 -6 -19 -3 -15 14
3 11 0 20 -6 20 -18 0 -25 -29 -11 -45 11 -13 10 -14 -5 -9 -12 5 -16 4 -12
-3 4 -6 1 -14 -5 -16 -10 -4 -10 -6 -1 -6 7 -1 10 -7 7 -15 -3 -9 4 -19 17
-27 22 -11 22 -12 4 -25 -10 -8 -14 -14 -8 -14 6 0 9 -9 6 -20 -4 -15 -2 -19
10 -14 10 3 20 -3 27 -17 12 -21 11 -22 -20 -15 -27 5 -31 4 -21 -8 10 -11 8
-16 -8 -21 -26 -8 -26 -17 -1 -35 11 -8 20 -20 20 -26 0 -7 6 -15 13 -17 9 -4
9 -6 0 -6 -6 -1 -15 4 -18 9 -11 18 -27 11 -20 -9 6 -21 -20 -37 -31 -19 -4 6
-15 -4 -26 -26 -15 -29 -24 -36 -47 -36 -40 0 -61 -9 -61 -27 0 -12 -3 -13
-14 -4 -11 10 -15 8 -19 -6 -3 -10 -5 -4 -6 14 0 17 -5 35 -11 38 -6 4 3 23
21 45 30 37 31 42 26 102 -3 35 -8 78 -11 96 -4 20 -2 31 4 27 6 -3 10 -1 10
4 0 6 -9 11 -19 11 -11 0 -23 5 -26 10 -3 6 -2 10 4 10 6 0 8 7 5 15 -7 16 7
20 22 6 5 -5 19 -5 33 0 23 9 23 10 5 24 -17 12 -20 11 -26 -3 -5 -14 -7 -14
-9 -2 -1 8 -3 20 -4 25 -2 6 -3 20 -4 33 -1 19 -6 23 -25 20 -13 -1 -30 3 -38
10 -13 10 -16 9 -21 -8 -3 -14 -13 -20 -31 -20 -14 0 -26 -4 -26 -10 0 -20
-29 -10 -48 17 l-19 27 -13 -25 c-7 -13 -17 -26 -21 -29 -4 -3 -2 -17 5 -30
11 -22 10 -27 -7 -42 -12 -11 -15 -18 -7 -18 7 0 5 -7 -7 -18 -10 -9 -12 -12
-3 -7 13 9 13 8 1 -7 -7 -10 -17 -16 -21 -13 -5 3 -21 -6 -37 -19 -25 -22 -28
-30 -28 -88 0 -55 5 -69 33 -110 17 -25 43 -55 57 -66 18 -14 22 -23 14 -28
-7 -4 -17 0 -24 9 -11 15 -14 13 -31 -18 -18 -35 -18 -35 4 -51 13 -9 19 -20
15 -27 -8 -14 -4 -69 6 -77 3 -3 14 -36 23 -73 13 -48 15 -74 8 -87 -14 -27
-12 -33 9 -27 15 4 21 -3 29 -32 6 -20 15 -51 21 -70 6 -18 8 -31 4 -28 -3 3
-13 -3 -23 -15 -21 -26 -44 -15 -37 18 3 20 2 22 -9 13 -17 -14 -19 -53 -3
-43 8 4 9 -3 4 -25 l-7 -31 871 0 871 0 0 1280 0 1280 -140 0 -140 0 0 -30 c0
-16 5 -30 10 -30 17 0 11 -26 -10 -45 -22 -20 -28 -44 -6 -26 16 13 46 4 46
-14 0 -7 -7 -15 -15 -19 -8 -3 -15 -1 -15 4 0 19 -17 10 -28 -15 -15 -33 -15
-42 0 -27 22 22 32 12 11 -10 -15 -16 -20 -31 -16 -50 7 -38 -14 -36 -22 2 -4
18 -11 27 -18 23 -6 -4 -8 0 -4 10 4 11 0 20 -12 26 -13 7 -18 6 -18 -5 0 -7
4 -14 7 -14 15 0 34 -64 31 -104 -1 -32 2 -44 19 -54 18 -11 22 -10 29 10 7
17 5 26 -7 35 -14 11 -14 14 0 30 8 10 18 30 22 46 3 15 11 27 16 27 14 0 13
-17 -1 -22 -8 -3 -6 -14 6 -37 13 -26 19 -31 26 -20 7 10 8 6 5 -13 -3 -16 0
-28 5 -28 15 0 10 -64 -8 -89 -9 -14 -11 -21 -5 -17 7 4 12 1 12 -9 0 -11 -5
-15 -15 -11 -8 3 -15 1 -15 -4 0 -19 -18 -10 -23 11 -3 12 -10 18 -16 14 -8
-4 -8 -12 -1 -26 6 -10 8 -19 5 -19 -3 0 -1 -8 4 -18 6 -11 6 -24 0 -33 -5 -7
-9 -10 -9 -6 0 4 -9 3 -20 -3 -11 -6 -20 -7 -20 -1 0 5 7 11 15 15 8 3 15 10
15 16 0 6 -11 3 -24 -7 -13 -10 -22 -21 -19 -26 7 -11 -21 -34 -36 -29 -8 3
-11 0 -8 -5 4 -6 -4 -10 -18 -10 -27 0 -34 24 -13 45 7 7 8 12 4 12 -5 0 2 8
15 19 20 16 21 21 10 35 -7 9 -17 13 -22 11 -4 -3 -5 12 -2 32 4 21 6 43 6 48
0 39 -5 55 -16 55 -17 0 -40 71 -27 84 5 5 6 22 3 38 -5 24 -3 27 12 22 15 -6
16 -4 6 14 -14 25 -59 62 -77 62 -8 0 -14 5 -14 10 0 6 7 10 15 10 20 0 19 10
-2 26 -17 12 -16 13 5 14 27 0 28 11 2 28 -11 7 -17 18 -14 27 5 13 -15 15
-147 15 l-154 -1 29 -23 c29 -25 28 -46 -3 -46 -10 0 -43 -18 -75 -40 -67 -47
-95 -50 -132 -13 -16 15 -29 23 -31 16 -8 -24 -40 1 -64 50 l-25 52 -697 3
-697 2 0 -1280z m2355 974 c30 11 54 -20 48 -62 -5 -31 -3 -35 8 -24 20 18 39
15 36 -8 -2 -11 -6 -22 -10 -26 -3 -3 1 -13 10 -22 14 -14 14 -17 -6 -33 -11
-9 -21 -24 -21 -33 0 -9 -8 -16 -20 -16 -11 0 -20 -4 -20 -10 0 -5 5 -10 12
-10 6 0 9 -3 5 -6 -3 -3 -19 2 -36 12 -25 15 -29 22 -24 46 3 18 1 28 -6 28
-6 0 -10 13 -9 30 1 17 7 30 13 30 5 0 4 4 -4 9 -8 5 -12 18 -8 30 3 12 1 21
-4 21 -10 0 -12 43 -2 53 4 4 10 2 14 -4 4 -7 15 -9 24 -5z m-1368 -17 c24
-18 126 -20 182 -3 29 8 57 13 62 10 5 -3 9 -23 9 -45 0 -22 7 -55 14 -74 8
-19 12 -35 8 -35 -4 0 1 -5 11 -11 13 -7 21 -6 32 5 23 23 46 9 38 -21 -6 -24
-4 -25 23 -19 23 6 27 5 17 -5 -15 -15 -17 -33 -4 -25 9 6 25 -30 22 -48 -1
-5 6 -3 15 5 16 12 17 12 11 -4 -6 -16 -3 -18 23 -12 19 4 30 3 30 -4 0 -6 -4
-11 -10 -11 -5 0 -10 -4 -10 -10 0 -5 7 -7 17 -3 13 5 15 2 11 -15 -5 -18 -2
-22 20 -23 15 0 21 -3 15 -6 -19 -7 2 -41 29 -46 l23 -4 -22 -8 c-31 -10 -29
-22 5 -23 39 -1 84 -26 71 -39 -8 -8 -3 -13 18 -17 18 -4 33 -17 41 -34 13
-31 64 -54 124 -58 21 -1 45 -10 55 -19 16 -17 16 -17 -7 -11 -23 6 -23 6 -7
-7 9 -8 17 -19 17 -25 0 -6 9 -14 20 -17 18 -6 18 -8 5 -21 -9 -9 -23 -13 -34
-9 -24 7 -49 35 -32 35 18 0 12 29 -8 40 -26 13 -40 13 -21 -1 12 -8 9 -10
-12 -6 -16 2 -28 3 -28 1 0 -2 12 -10 28 -18 31 -17 12 -22 -21 -5 -15 7 -12
2 8 -15 17 -14 26 -25 21 -26 -16 0 -75 58 -63 64 7 2 2 5 -11 5 -15 1 -21 5
-16 13 5 8 2 9 -10 5 -10 -4 -23 -7 -29 -8 -7 0 -3 -4 8 -9 17 -7 14 -9 -13
-9 -18 -1 -40 6 -48 14 -9 8 -25 14 -37 14 -21 -2 -21 -2 1 -6 19 -4 21 -7 11
-19 -7 -8 -8 -14 -3 -13 20 3 78 -4 62 -8 -9 -2 -15 -10 -12 -18 3 -7 -4 -19
-16 -25 -11 -6 -18 -15 -15 -20 3 -4 -1 -11 -7 -13 -7 -3 -4 -6 6 -6 19 -1 19
-2 -2 -21 -12 -11 -26 -20 -32 -20 -5 0 -10 -4 -10 -10 0 -5 -11 -10 -25 -10
-14 0 -25 6 -25 13 0 29 -44 54 -92 54 -26 0 -53 4 -60 9 -14 11 -82 10 -110
-1 -22 -9 -23 3 -3 29 29 38 16 53 -15 18 -17 -18 -41 -37 -55 -42 -27 -10
-49 -67 -33 -87 11 -13 0 -63 -14 -63 -5 0 -6 -4 -3 -10 8 -13 -11 -13 -36 0
-11 6 -19 21 -19 36 0 13 -7 41 -15 61 -18 42 -19 75 -4 90 8 8 8 17 -1 33 -7
12 -8 25 -4 29 13 9 16 34 4 26 -5 -3 -10 -2 -10 4 0 5 5 13 11 17 7 4 9 31 5
75 -4 56 -2 69 10 69 8 0 14 5 14 10 0 6 -4 10 -10 10 -5 0 -10 7 -10 15 0 8
-6 12 -13 10 -6 -3 -18 4 -24 15 -11 16 -10 18 2 14 11 -5 15 1 15 21 0 15 -4
24 -10 20 -5 -3 -10 2 -11 12 0 16 -1 16 -10 -2 -6 -14 -7 -9 -3 21 4 30 1 44
-10 54 -14 11 -16 9 -16 -8 0 -12 -4 -24 -10 -27 -5 -3 -10 -18 -11 -33 0 -15
-3 -21 -6 -14 -3 9 -13 1 -29 -22 -15 -22 -30 -33 -39 -30 -10 4 -13 -1 -11
-18 1 -13 6 -30 10 -37 9 -13 -8 -31 -30 -31 -15 0 -24 -70 -12 -94 7 -13 7
-16 -1 -12 -18 11 -34 -39 -26 -81 l7 -38 14 25 14 25 -6 -30 c-4 -16 -10 -34
-14 -40 -13 -17 -17 -74 -6 -78 7 -2 7 -11 -1 -28 -9 -19 -12 -20 -12 -6 -1
17 -31 57 -31 42 0 -4 -18 9 -40 29 -22 20 -45 36 -50 36 -6 0 -10 6 -10 14 0
8 -5 18 -11 21 -21 13 -21 -5 -1 -40 l21 -35 -27 20 c-40 29 -146 24 -172 -8
-10 -12 -23 -22 -28 -22 -12 0 -26 30 -23 48 1 6 -5 12 -14 12 -9 0 -14 -4
-11 -9 9 -13 -26 -23 -38 -11 -7 7 -6 10 3 10 7 0 9 5 5 11 -9 16 17 30 41 23
15 -5 13 -1 -8 16 -19 15 -27 29 -24 41 3 11 1 19 -4 19 -6 0 1 10 14 23 23
22 32 66 12 68 -5 0 -1 4 9 8 11 4 20 19 22 37 2 16 14 38 28 49 14 11 26 33
28 50 2 23 9 31 28 33 13 2 31 13 38 24 8 10 25 24 39 29 15 6 23 15 20 23 -7
17 10 25 46 21 18 -2 27 1 27 11 0 8 6 11 15 8 8 -4 15 -1 15 6 0 7 8 9 19 5
16 -5 20 1 24 32 2 21 0 42 -4 48 -5 5 -9 16 -9 25 0 13 2 13 10 0 8 -11 9 -7
4 15 -4 17 -10 34 -15 39 -5 6 3 17 19 27 21 14 46 18 112 17 47 -1 90 -5 97
-11z m1329 -229 c-1 -7 -5 -18 -9 -24 -12 -20 25 -26 45 -8 10 10 20 15 23 13
8 -9 -73 -75 -86 -70 -7 2 -9 -1 -5 -8 4 -6 2 -11 -4 -11 -6 0 -9 -4 -5 -9 3
-5 1 -12 -5 -16 -6 -4 -8 -10 -5 -15 3 -4 -1 -8 -8 -7 -40 1 -67 -4 -67 -14 0
-7 9 -9 21 -6 17 5 18 3 8 -10 -11 -12 -10 -14 2 -13 64 10 58 -15 -9 -32
l-47 -13 40 -6 c39 -6 39 -6 7 -8 -44 -1 -38 -24 9 -32 l34 -6 -38 -2 c-23 0
-36 -5 -32 -11 3 -5 -1 -10 -9 -10 -19 0 -21 -16 -3 -24 6 -4 -3 -4 -20 -1
-18 2 -33 0 -33 -5 0 -9 -11 -8 -65 6 -26 6 -27 8 -10 15 13 5 15 8 5 8 -8 1
-20 18 -27 38 -10 33 -9 39 7 50 9 7 20 26 23 42 5 21 16 34 41 46 39 19 72
60 56 70 -6 4 4 17 22 29 38 27 49 25 23 -4 -20 -22 -14 -26 15 -10 30 16 35
-8 8 -35 -14 -14 -36 -29 -49 -35 -22 -10 -22 -10 6 -4 16 3 32 9 35 12 3 4
23 17 45 28 21 12 41 28 44 35 3 12 1 12 -13 0 -12 -10 -20 -11 -27 -4 -17 17
-6 46 21 60 32 16 39 16 36 1z m-394 -1017 c-1 -6 9 -17 23 -23 14 -6 25 -16
25 -21 0 -6 3 -7 6 -4 4 3 16 -6 27 -20 15 -18 17 -28 9 -31 -8 -2 -9 -9 -2
-22 5 -10 7 -33 3 -51 -5 -28 -7 -30 -14 -14 -11 28 -11 37 1 30 12 -8 13 -8
-4 40 -17 48 -40 58 -43 18 0 -15 -6 -29 -12 -31 -6 -2 -9 -8 -5 -13 3 -5 -11
-25 -32 -44 -21 -20 -34 -40 -31 -49 8 -20 -3 -27 -23 -16 -16 8 -19 4 -25
-28 -3 -23 -15 -44 -27 -53 -12 -8 -29 -22 -39 -31 -10 -10 -25 -15 -32 -12
-13 5 -15 0 -19 -45 -1 -11 -6 -17 -10 -15 -4 3 -18 -4 -30 -15 -12 -12 -34
-21 -48 -21 -24 0 -26 -3 -22 -29 4 -27 2 -28 -25 -23 -23 4 -123 92 -123 108
0 2 8 4 18 4 14 0 14 2 3 9 -12 8 -12 14 -1 40 7 17 16 31 20 31 4 0 10 13 13
28 5 22 18 34 63 56 31 16 62 32 68 37 6 5 23 19 39 30 15 11 35 35 44 52 9
18 26 45 39 60 13 16 24 37 24 47 0 19 13 24 95 33 39 5 51 2 47 -12z"/>
<path d="M475 1201 c-11 -5 -25 -6 -31 -4 -6 2 -23 -8 -38 -22 -27 -25 -29
-25 -41 -8 -7 10 -16 15 -19 12 -10 -9 5 -39 18 -39 7 0 13 -6 13 -14 0 -14
-36 -36 -66 -42 -7 -1 -17 -6 -22 -11 -12 -12 0 -50 17 -57 19 -7 44 3 44 19
0 21 34 28 45 10 41 -69 71 -99 123 -123 31 -14 59 -29 60 -34 2 -4 9 -8 16
-8 13 0 16 14 16 59 0 13 8 30 17 37 17 12 17 14 -1 31 -18 17 -19 17 -12 -1
4 -13 -4 -8 -26 14 -21 21 -29 34 -20 37 19 7 14 25 -6 19 -13 -5 -22 1 -30
18 -7 16 -8 28 -2 31 18 11 10 34 -12 38 -20 4 -19 4 5 6 16 0 26 6 25 14 -2
6 3 11 10 9 8 -1 11 2 7 8 -5 8 -12 7 -23 -2 -12 -10 -16 -10 -19 0 -5 13 -18
14 -48 3z"/>
</g>
</svg>
